# xmcd
#
# Track frame offsets: 
#        150
#        87617
#        167066
#        246879
#
# Disc length: 4373 seconds
#
# Revision: 0
# Processed by: cddbd v1.5.2PL0 Copyright (c) Steve Scherf et al.
# Submitted via: ExactAudioCopy v0.99pb5
#
DISCID=2e111304
DTITLE=박동진 - 박동진 충무공 이순신 CD 2
DYEAR=1900
DGENRE=판소리
TTITLE0=박동진 충무공 이순신, 한산대첩-부산포싸움-정운장군 전사
TTITLE1=박동진 충무공 이순신, 평양에서 서울까지-선조대완 환도-통제사 
TTITLE1=抉鞭
TTITLE2=박동진 충무공 이순신, 원균의 모함-죄없는 죄인-투옥
TTITLE3=박동진 충무공 이순신, 백의조운-원균전사
EXTD=
EXTT0=
EXTT1=
EXTT2=
EXTT3=
PLAYORDER=
